<svg width="414" height="896" viewBox="0 0 414 896" fill="none" xmlns="http://www.w3.org/2000/svg">
<rect width="414" height="896" fill="#F5F5F5"/>
<g id="splashIMDb">
<rect width="414" height="896" fill="#EFC844"/>
<g id="Frame" clip-path="url(#clip0_0_1)">
<path id="Vector" d="M180.551 136.955C181.217 132.117 182.025 127.293 182.507 122.441C182.762 119.844 183.698 118.596 186.42 118.681C190.219 118.809 194.032 118.78 197.846 118.695C200.27 118.638 201.503 119.461 201.503 122.086C201.46 137.367 201.46 152.647 201.503 167.928C201.517 170.453 200.454 171.347 197.973 171.503C188.716 172.057 188.716 172.128 188.702 163.061C188.688 158.677 188.66 154.293 188.645 149.909C188.645 149.342 188.645 148.788 188.149 148.15C187.27 154.378 186.264 160.607 185.569 166.85C185.215 170.042 184.18 171.645 180.622 171.56C177.376 171.489 175.32 171.049 174.966 167.148C174.427 161.26 173.378 155.4 171.592 149.54C171.592 154.988 171.705 160.451 171.521 165.885C171.464 167.673 170.77 170.893 170.075 170.978C166.658 171.39 163.143 171.064 159.698 170.695C159.33 170.652 158.918 168.723 158.918 167.658C158.862 152.662 158.933 137.665 158.848 122.668C158.833 119.759 159.826 118.553 162.774 118.681C166.29 118.837 169.834 118.851 173.35 118.667C176.199 118.525 177.446 119.717 177.772 122.469C178.354 127.307 179.105 132.117 179.785 136.941C180.055 136.941 180.296 136.955 180.551 136.955Z" fill="black"/>
<path id="Vector_2" d="M236.503 145.809C236.503 151.03 236.688 156.28 236.461 161.487C236.177 167.786 233.555 170.553 227.374 170.95C221.193 171.347 214.984 171.262 208.789 171.461C206.224 171.546 205.373 170.425 205.387 167.9C205.458 152.633 205.444 137.367 205.401 122.1C205.401 119.887 206.011 118.61 208.492 118.695C213.978 118.865 219.506 118.624 224.964 119.107C233.158 119.844 236.333 123.519 236.546 131.805C236.659 136.459 236.56 141.127 236.56 145.795C236.532 145.809 236.518 145.809 236.503 145.809ZM220.045 128.655C220.045 139.878 220.045 150.391 220.045 161.217C223.915 158.663 224.114 131.748 220.045 128.655Z" fill="black"/>
<path id="Vector_3" d="M254.238 133.266C268.442 128.84 272.836 133.607 271.872 146.66C271.561 150.888 271.872 155.145 271.787 159.387C271.575 170.737 264.529 174.696 256.577 170.184C250.509 170.454 246.342 170.751 242.202 170.681C241.593 170.666 240.515 168.864 240.515 167.885C240.402 152.321 240.444 136.757 240.444 121.192C240.444 120.909 240.388 120.568 240.515 120.355C243.223 116.07 247.391 119.092 250.821 118.369C252.877 117.943 254.337 118.865 254.266 121.391C254.167 125.293 254.238 129.209 254.238 133.266ZM254.308 151.143C254.323 151.143 254.323 151.143 254.337 151.143C254.337 154.236 254.238 157.344 254.408 160.423C254.45 161.217 255.287 161.969 255.769 162.735C256.435 161.997 257.668 161.274 257.682 160.522C257.852 154.478 257.852 148.434 257.739 142.404C257.725 141.68 256.662 140.985 256.095 140.275C255.499 141.084 254.479 141.864 254.408 142.716C254.181 145.511 254.308 148.334 254.308 151.143Z" fill="black"/>
<path id="Vector_4" d="M155.304 145.17C155.304 152.662 155.218 160.167 155.346 167.658C155.389 170.482 154.538 171.787 151.504 171.73C138.718 171.489 141.269 173.249 141.128 161.628C140.957 149.044 141.198 136.459 141.014 123.874C140.957 120.313 141.78 118.78 145.664 118.894C157.132 119.22 155.119 117.745 155.289 128.613C155.374 134.132 155.304 139.651 155.304 145.17Z" fill="black"/>
</g>
</g>
<defs>
<clipPath id="clip0_0_1">
<rect width="131" height="54" fill="white" transform="translate(141 118)"/>
</clipPath>
</defs>
</svg>
