<svg width="414" height="896" viewBox="0 0 414 896" fill="none" xmlns="http://www.w3.org/2000/svg">
<rect width="414" height="896" fill="#F5F5F5"/>
<g id="splashIMDb">
<rect width="414" height="896" fill="#EFC844"/>
<g id="Frame" clip-path="url(#clip0_0_1)">
<path id="Vector" d="M171.345 436.976C172.26 430.346 173.371 423.735 174.033 417.086C174.383 413.528 175.669 411.817 179.409 411.933C184.629 412.108 189.869 412.069 195.108 411.953C198.439 411.875 200.134 413.003 200.134 416.6C200.075 437.54 200.075 458.48 200.134 479.42C200.153 482.881 198.692 484.106 195.284 484.319C182.564 485.078 182.564 485.175 182.545 472.751C182.525 466.743 182.486 460.735 182.467 454.727C182.467 453.95 182.467 453.191 181.785 452.316C180.578 460.852 179.195 469.387 178.24 477.942C177.753 482.317 176.331 484.514 171.442 484.397C166.982 484.3 164.157 483.697 163.67 478.35C162.93 470.282 161.489 462.252 159.034 454.222C159.034 461.688 159.19 469.173 158.937 476.62C158.859 479.07 157.905 483.483 156.95 483.6C152.256 484.164 147.425 483.717 142.692 483.211C142.186 483.153 141.621 480.509 141.621 479.05C141.543 458.499 141.64 437.948 141.523 417.397C141.504 413.411 142.867 411.758 146.919 411.933C151.749 412.147 156.619 412.167 161.45 411.914C165.365 411.719 167.079 413.353 167.527 417.125C168.326 423.755 169.358 430.346 170.293 436.956C170.663 436.956 170.994 436.976 171.345 436.976Z" fill="black"/>
<path id="Vector_2" d="M248.226 449.108C248.226 456.263 248.479 463.457 248.168 470.593C247.778 479.225 244.175 483.017 235.682 483.561C227.189 484.106 218.658 483.989 210.146 484.261C206.62 484.378 205.451 482.842 205.471 479.381C205.568 458.46 205.549 437.54 205.49 416.619C205.49 413.586 206.328 411.836 209.737 411.953C217.275 412.186 224.871 411.855 232.371 412.517C243.629 413.528 247.992 418.563 248.284 429.918C248.44 436.295 248.304 442.692 248.304 449.089C248.265 449.108 248.246 449.108 248.226 449.108ZM225.612 425.602C225.612 440.981 225.612 455.388 225.612 470.223C230.929 466.724 231.202 429.84 225.612 425.602Z" fill="black"/>
<path id="Vector_3" d="M272.594 431.921C292.111 425.854 298.149 432.387 296.825 450.275C296.396 456.069 296.825 461.902 296.708 467.715C296.416 483.27 286.735 488.694 275.807 482.511C267.471 482.881 261.744 483.289 256.056 483.192C255.219 483.172 253.738 480.703 253.738 479.362C253.583 458.033 253.641 436.704 253.641 415.375C253.641 414.986 253.563 414.519 253.738 414.228C257.459 408.356 263.185 412.497 267.899 411.506C270.724 410.922 272.73 412.186 272.633 415.647C272.496 420.994 272.594 426.36 272.594 431.921ZM272.691 456.419C272.71 456.419 272.71 456.419 272.73 456.419C272.73 460.657 272.594 464.915 272.827 469.135C272.886 470.223 274.035 471.254 274.697 472.304C275.613 471.293 277.307 470.301 277.327 469.271C277.561 460.988 277.561 452.705 277.405 444.442C277.385 443.45 275.924 442.498 275.145 441.525C274.327 442.634 272.925 443.703 272.827 444.87C272.516 448.7 272.691 452.569 272.691 456.419Z" fill="black"/>
<path id="Vector_4" d="M136.654 448.233C136.654 458.499 136.537 468.785 136.712 479.05C136.771 482.92 135.602 484.708 131.434 484.631C113.864 484.3 117.37 486.711 117.175 470.787C116.942 453.541 117.273 436.295 117.019 419.049C116.942 414.169 118.071 412.069 123.408 412.225C139.166 412.672 136.4 410.65 136.634 425.543C136.751 433.107 136.654 440.67 136.654 448.233Z" fill="black"/>
</g>
</g>
<defs>
<clipPath id="clip0_0_1">
<rect width="180" height="74" fill="white" transform="translate(117 411)"/>
</clipPath>
</defs>
</svg>
