<svg width="180" height="74" viewBox="0 0 180 74" fill="none" xmlns="http://www.w3.org/2000/svg">
<g clip-path="url(#clip0_1_12)">
<path d="M54.3448 25.9758C55.2603 19.3458 56.3705 12.7352 57.0328 6.08565C57.3834 2.52759 58.669 0.816605 62.4088 0.933263C67.629 1.10825 72.8687 1.06936 78.1084 0.952706C81.4392 0.874934 83.1339 2.00263 83.1339 5.59958C83.0754 26.5397 83.0754 47.4798 83.1339 68.4199C83.1533 71.8807 81.6925 73.1056 78.2837 73.3195C65.5643 74.0778 65.5643 74.175 65.5449 61.7509C65.5254 55.743 65.4864 49.7351 65.4669 43.7273C65.4669 42.9496 65.4669 42.1913 64.7852 41.3163C63.5775 49.8518 62.1946 58.3873 61.2401 66.9422C60.7532 71.3169 59.3312 73.5139 54.4422 73.3973C49.9816 73.3 47.1572 72.6973 46.6703 67.3505C45.9301 59.2817 44.4887 51.2517 42.0344 43.2218C42.0344 50.6879 42.1902 58.1734 41.937 65.6201C41.8591 68.0699 40.9047 72.4834 39.9502 72.6001C35.2559 73.1639 30.4253 72.7168 25.692 72.2112C25.1856 72.1529 24.6207 69.5087 24.6207 68.0504C24.5428 47.4992 24.6402 26.948 24.5233 6.39674C24.5038 2.41093 25.8673 0.758276 29.9188 0.933263C34.7495 1.14714 39.6191 1.16658 44.4497 0.91382C48.3649 0.71939 50.079 2.3526 50.527 6.12454C51.3256 12.7546 52.358 19.3458 53.2929 25.9564C53.663 25.9564 53.9942 25.9758 54.3448 25.9758Z" fill="black"/>
<path d="M131.226 38.1082C131.226 45.2633 131.479 52.4572 131.168 59.5927C130.778 68.2254 127.175 72.0168 118.682 72.5612C110.189 73.1056 101.658 72.989 93.1458 73.2612C89.6202 73.3778 88.4515 71.8418 88.4709 68.381C88.5683 47.4603 88.5489 26.5397 88.4904 5.61902C88.4904 2.58592 89.328 0.836048 92.7367 0.952706C100.275 1.18602 107.871 0.855491 115.371 1.51655C126.629 2.52759 130.992 7.56332 131.284 18.918C131.44 25.2953 131.304 31.6921 131.304 38.0888C131.265 38.1082 131.246 38.1082 131.226 38.1082ZM108.612 14.6017C108.612 29.9811 108.612 44.3883 108.612 59.2233C113.929 55.7236 114.202 18.8403 108.612 14.6017Z" fill="black"/>
<path d="M155.594 20.9207C175.111 14.8544 181.149 21.3873 179.825 39.2748C179.396 45.0688 179.825 50.9017 179.708 56.7152C179.416 72.2696 169.735 77.6942 158.807 71.5113C150.471 71.8807 144.744 72.289 139.056 72.1918C138.219 72.1724 136.738 69.7031 136.738 68.3615C136.583 47.0326 136.641 25.7036 136.641 4.37467C136.641 3.98581 136.563 3.51918 136.738 3.22754C140.459 -2.64425 146.185 1.49711 150.899 0.505517C153.724 -0.0777721 155.73 1.18602 155.633 4.64687C155.496 9.99369 155.594 15.36 155.594 20.9207ZM155.691 45.4188C155.71 45.4188 155.71 45.4188 155.73 45.4188C155.73 49.6574 155.594 53.9154 155.827 58.1345C155.886 59.2233 157.035 60.2538 157.697 61.3037C158.613 60.2927 160.307 59.3011 160.327 58.2706C160.561 49.9879 160.561 41.7052 160.405 33.4419C160.385 32.4503 158.924 31.4976 158.145 30.5255C157.327 31.6337 155.925 32.7031 155.827 33.8697C155.516 37.6999 155.691 41.5691 155.691 45.4188Z" fill="black"/>
<path d="M19.6537 37.2333C19.6537 47.4992 19.5368 57.7845 19.7122 68.0504C19.7706 71.9196 18.6019 73.7084 14.4335 73.6306C-3.13603 73.3001 0.370088 75.711 0.175304 59.7872C-0.0584367 42.5413 0.272696 25.2953 0.0194769 8.0494C-0.0584367 3.16921 1.07131 1.06936 6.4084 1.22491C22.1664 1.6721 19.4005 -0.349973 19.6342 14.5434C19.7511 22.1067 19.6537 29.67 19.6537 37.2333Z" fill="black"/>
</g>
<defs>
<clipPath id="clip0_1_12">
<rect width="180" height="74" fill="white"/>
</clipPath>
</defs>
</svg>
